# xmcd
#
# Track frame offsets:
#	150
#	19800
#	39886
#	59809
#	80428
#	94563
#	110850
#	131680
#	149545
#	173561
#	188721
#
# Disc length: 2876 seconds
# Revision: 0
# Processed by: cddbd v1.5.2PL0 Copyright (c) Steve Scherf et al.
# Submitted via: dBpowerAMP V12.0
#
DISCID=950b3a0b
DTITLE=Universum - Mortuus Machina
DYEAR=2010
DGENRE=Metal
TTITLE0=Fractured Archetype
TTITLE1=Genetic Sequence Distortion
TTITLE2=Sum of the Universe
TTITLE3=Aeon Displacement
TTITLE4=2.0
TTITLE5=Slaves to the New Order
TTITLE6=Take Another
TTITLE7=Asymmetric Dimensional State
TTITLE8=Morte Noir
TTITLE9=Transcendence 0.0
TTITLE10=Blank Infinity
EXTD=
EXTT0=
EXTT1=
EXTT2=
EXTT3=
EXTT4=
EXTT5=
EXTT6=
EXTT7=
EXTT8=
EXTT9=
EXTT10=
PLAYORDER=
